<svg width="56" height="37" viewBox="0 0 56 37" fill="none" xmlns="http://www.w3.org/2000/svg">
<path fill-rule="evenodd" clip-rule="evenodd" d="M12.6377 9.30113C15.3028 3.10038 20.4283 0 28.0139 0C39.3925 0 44.6639 8.01097 44.6639 13.5977C47.9515 13.5977 53.9984 15.5975 55.5488 21.8383C57.0732 27.974 54.7348 33.0279 48.5337 37C32.3929 37 20.693 37 13.434 37C2.54543 37 -2.28448 24.0186 1.02991 17.2521C3.23951 12.741 7.10877 10.0907 12.6377 9.30113Z" fill="#B6CEE7"/>
<path d="M27.7099 14.0463C27.5029 14.1043 26.5819 14.9813 24.1139 17.4723C22.2919 19.3113 22.1219 19.4933 22.0589 19.6833C21.8739 20.2413 22.2669 20.9033 22.8289 20.9783C23.0909 21.0133 23.3709 20.9523 23.5399 20.8233C23.6179 20.7633 24.4269 19.9763 25.3389 19.0743L26.9959 17.4343L27.0099 21.3273C27.0209 24.4093 27.0349 25.2533 27.0759 25.3803C27.1349 25.5583 27.3689 25.7963 27.5939 25.9063C27.7899 26.0023 28.2099 26.0023 28.4059 25.9063C28.6309 25.7963 28.8649 25.5583 28.9239 25.3803C28.9649 25.2533 28.9789 24.4083 28.9899 21.3253L29.0039 17.4293L30.6119 19.0273C31.4959 19.9063 32.3269 20.7053 32.4569 20.8033C32.6859 20.9743 32.7039 20.9803 32.9769 20.9783C33.1859 20.9773 33.3019 20.9553 33.4199 20.8923C33.7479 20.7183 33.9969 20.3413 33.9989 20.0173C34.0009 19.6023 34.0289 19.6353 31.8449 17.4323C29.7059 15.2733 28.6019 14.2043 28.4059 14.1033C28.2489 14.0223 27.8979 13.9933 27.7099 14.0463Z" fill="white"/>
</svg>
